<svg xmlns="http://www.w3.org/2000/svg" viewBox="0 0 250280 333333" shape-rendering="geometricPrecision" text-rendering="geometricPrecision" image-rendering="optimizeQuality" fill-rule="evenodd" clip-rule="evenodd"><path d="M128819 316964c17107-10891 32490-24059 45905-38766 29106-31874 48735-70826 56611-109039 7815-37720 4123-74702-13169-103254-4922-8184-11076-15691-18398-22398-20983-19137-45043-28244-69226-28490-25413-185-51196 9353-73964 27506-9722 7753-17722 16676-23937 26521-15999 25167-20860 56426-15568 89102 5354 33166 21106 67872 46212 99316 17476 21906 39443 42274 65595 59442l-61 61v-1zm-3679-252306l-63396 62098 15467 8122 47519-49894 48340 49894 15465-8122-63396-62098zm-44547 74226h2l44608-44627 44484 44627h2v43784h-32494v-30928h-24387v30929l-32216-1v-43784zm105268 149405c-15199 16614-32798 31506-52673 43566-2400 1785-5784 2031-8492 308-29290-18645-53842-41043-73226-65349-26644-33475-43504-70579-49227-106331-5846-36244-369-71072 17661-99501 7138-11200 16183-21415 27321-30213C72639 10524 101744-183 130665 2c27875 246 55381 10584 79256 32367 8369 7630 15383 16245 21106 25721 19383 31936 23568 72733 15076 113962-8430 40797-29291 82270-60181 116115l-61 123v-1z"/></svg>